<svg width="76" height="74" viewBox="0 0 76 74" fill="none" xmlns="http://www.w3.org/2000/svg">
<ellipse cx="38.5" cy="70" rx="24.5" ry="4" fill="black" fill-opacity="0.3"/>
<path d="M57.2941 23.1433C57.2941 28.4969 55.0279 33.9414 49.9467 41.5612C44.8655 49.181 44.6839 50.2706 44.8655 54.4437C45.0471 58.6169 45.592 61.882 42.4177 61.882C39.2434 61.882 33.8899 57.618 33.8899 52.446C33.8899 47.274 36.7483 43.2391 36.7483 39.0186C36.7483 38.4421 36.6061 37.9091 36.3969 37.4433C35.856 36.2351 34.3162 35.8404 33.2345 36.6063C31.7776 37.6407 29.6101 38.9475 28.1019 38.837C28.1019 38.837 29.1719 45.0986 27.5374 46.7292C27.5374 46.7292 31.6158 49.0902 32.9818 53.0817C33.57 54.807 36.1205 58.1787 36.1205 58.1787C36.1205 58.1787 42.9625 62.9677 39.196 66.825C36.5153 69.5728 33.2976 67.1882 30.3049 64.6456C27.3124 62.107 22.322 59.3394 17.7382 51.9446C17.2368 51.1353 16.0129 45.0039 16.0129 40.3333C16.0129 33.1201 15.468 26.8625 21.4573 20.3284C27.4465 13.7943 37.605 3.0002 47.2225 3.0002C56.84 3.0002 67.4525 4.36227 73.7142 3.27259C73.7142 3.27259 77.532 18.4845 74.4406 23.3249C72.3521 26.59 62.1897 23.1433 57.2941 23.1433Z" fill="url(#paint0_linear_1_31)"/>
<path d="M49.9427 41.5612C55.0239 33.9414 57.2901 28.4969 57.2901 23.1433C57.2901 23.1433 57.9257 22.5076 59.6471 18.7886C59.6471 18.7886 55.545 17.1778 52.8209 20.6245C51.9286 21.7575 52.9511 27.9205 52.0667 32.6464C51.4943 35.714 47.8265 39.5832 44.3246 45.1579C45.0313 45.8212 45.7775 46.441 46.496 47.0372C47.2738 45.6474 48.3713 43.9182 49.9427 41.5612Z" fill="url(#paint1_linear_1_31)"/>
<path d="M43.8864 61.5148C45.3827 60.5554 45.0077 57.7917 44.8655 54.4437C44.7391 51.5617 44.7905 50.1483 46.5079 47.0372C45.7854 46.441 45.0392 45.8212 44.3365 45.1579C42.3506 48.3203 40.7871 51.2853 40.7871 53.3541C40.7793 57.0456 42.9665 59.5605 43.8864 61.5148Z" fill="url(#paint2_linear_1_31)"/>
<path d="M73.7143 3.27239C67.4526 4.36207 56.8401 3 47.2226 3C37.6051 3 27.4427 13.7981 21.4573 20.3282C15.4681 26.8623 16.0129 33.12 16.0129 40.3332C16.0129 45.0037 17.2329 51.1351 17.7382 51.9444C22.318 59.3392 27.3084 62.1068 30.305 64.6455C31.8368 65.9443 33.424 67.1959 34.9677 67.7486C31.3828 64.3138 23.6999 59.0945 19.4636 51.747C18.1015 49.39 17.7382 37.9248 17.7382 32.9384C17.7382 27.952 26.1753 19.6017 40.7832 10.2566C47.1357 6.19401 55.3004 6.73494 57.2941 9.45512C59.2919 12.1754 59.4735 12.3412 59.4735 10.6198C59.4735 8.89447 60.6539 6.99158 67.0933 6.99158C69.9557 6.99158 72.6877 7.86802 74.8474 8.84315C74.3144 5.66499 73.7143 3.27239 73.7143 3.27239Z" fill="url(#paint3_radial_1_31)"/>
<path d="M25.7487 40.9851C27.2609 44.5541 23.9959 44.491 25.6264 47.8192C27.2609 51.1475 29.3178 52.4148 31.13 56.4063C32.9382 60.382 40.6093 62.3403 39.8672 65.9014C40.9449 63.963 39.8395 61.9139 38.5445 60.4136C39.4171 61.0177 40.3172 61.4599 41.1503 61.6928C40.2343 60.5242 38.8841 58.7002 37.4193 56.347C37.1429 55.9049 36.9376 55.3443 36.7758 54.7363C36.1322 52.2648 36.3889 49.6235 37.3917 47.2744C38.6275 44.3765 39.2315 41.8774 39.2315 40.4403C39.2315 38.6241 39.1486 35.5999 36.1362 33.9062C33.1238 32.2125 30.2812 34.2693 27.9203 34.451C25.5672 34.6366 24.2367 37.416 25.7487 40.9851ZM36.1165 58.1829C36.1165 58.1829 36.0612 58.1079 35.9744 57.9935C36.0296 58.0645 36.0849 58.1356 36.1402 58.2027C36.1362 58.1948 36.1165 58.1829 36.1165 58.1829ZM28.0979 38.8373C29.6061 38.9479 31.7736 37.641 33.2304 36.6066C34.3082 35.8407 35.8519 36.2356 36.3928 37.4436C36.6021 37.9096 36.7442 38.4386 36.7442 39.0189C36.7442 43.2394 33.8858 47.2744 33.8858 52.4464C33.8858 54.1953 34.5057 55.8339 35.4374 57.2433C34.6399 56.1181 33.3725 54.2388 32.9777 53.0781C31.6117 49.0865 27.5333 46.7255 27.5333 46.7255C29.1678 45.099 28.0979 38.8373 28.0979 38.8373Z" fill="url(#paint4_linear_1_31)"/>
<path d="M28.6231 49.4533C29.7128 51.0879 31.6631 56.7573 32.5238 57.618C33.2463 58.3405 37.83 60.6501 40.1633 63.1888C39.8791 62.1741 39.2434 61.2147 38.5486 60.4132C39.2593 60.9028 39.9857 61.2858 40.6805 61.5345C36.1007 57.5232 35.9705 53.204 35.9705 51.1747C35.9705 48.9954 42.323 35.2087 34.6083 35.2087C32.3422 35.2087 30.2536 38.4145 27.8966 37.8105C25.5397 37.2064 28.2599 40.1991 26.8069 43.8273C25.358 47.4556 27.5334 47.8189 28.6231 49.4533ZM36.1166 58.1825C36.1166 58.1825 36.0613 58.1075 35.9744 57.9931C36.0297 58.0641 36.085 58.1352 36.1403 58.2024C36.1363 58.1944 36.1166 58.1825 36.1166 58.1825ZM28.098 38.8369C29.6062 38.9475 31.7736 37.6407 33.2305 36.6063C34.3083 35.8404 35.852 36.2351 36.3929 37.4433C36.6022 37.9091 36.7443 38.4382 36.7443 39.0185C36.7443 43.2391 33.8859 47.274 33.8859 52.446C33.8859 54.195 34.5057 55.8334 35.4375 57.243C34.64 56.1177 33.3726 54.2384 32.9779 53.0777C31.6118 49.0862 27.5334 46.7252 27.5334 46.7252C29.1679 45.0986 28.098 38.8369 28.098 38.8369Z" fill="url(#paint5_linear_1_31)"/>
<path opacity="0.75" d="M45.1578 39.4687C41.49 39.3306 40.049 33.1518 40.0568 26.4203C40.0648 20.9167 43.4759 14.8722 47.0568 15.1012C50.6377 15.3262 53.7764 16.1829 52.896 27.6008C52.3749 34.3283 48.7466 39.603 45.1578 39.4687Z" fill="url(#paint6_radial_1_31)"/>
<path opacity="0.75" d="M24.2052 33.4246C22.3733 31.7703 25.8081 26.5983 30.3799 21.6316C34.1188 17.5691 40.0133 14.5488 41.7426 16.2267C43.4718 17.9047 44.5418 19.8669 36.3258 27.9289C31.4855 32.6784 25.9976 35.0433 24.2052 33.4246Z" fill="url(#paint7_radial_1_31)"/>
<path opacity="0.75" d="M60.9025 13.7864C61.0249 10.091 64.1795 8.32223 67.5946 7.98266C70.3859 7.70234 73.4062 10.8213 73.2443 14.4339C73.0824 18.0464 72.6047 21.2483 66.8208 20.9521C63.4096 20.7784 60.7841 17.4028 60.9025 13.7864Z" fill="url(#paint8_radial_1_31)"/>
<path d="M42.4138 61.8822C41.257 61.9099 40.1161 61.5032 39.1053 60.9386C38.0868 60.3701 37.1865 59.6121 36.3891 58.7632C35.6191 57.8907 34.9519 56.9155 34.5058 55.8377C34.0518 54.7638 33.8228 53.5951 33.8859 52.4463C34.0518 54.7519 35.1296 56.8602 36.6615 58.5185C37.4116 59.3633 38.2921 60.0938 39.2514 60.6978C40.2068 61.29 41.2649 61.7756 42.4138 61.8822Z" fill="#804B24"/>
<path d="M57.2941 23.143C62.1938 23.143 72.3561 26.5897 74.4407 23.3246C74.6973 22.9258 74.8987 22.4481 75.0684 21.923C70.5834 26.0211 67.5197 18.7882 59.6551 18.7882C57.9258 22.5073 57.2941 23.143 57.2941 23.143Z" fill="url(#paint9_linear_1_31)"/>
<path d="M56.7941 22.6433H57.2941C58.5636 22.6433 60.1538 22.8656 61.8251 23.1373C62.3237 23.2184 62.83 23.3039 63.3396 23.39C64.5552 23.5953 65.7899 23.804 66.9859 23.9629C68.6845 24.1885 70.2556 24.3064 71.5177 24.1766C72.7983 24.0449 73.6245 23.6729 74.0194 23.0555C74.7167 21.9634 75.0555 20.2195 75.1316 18.1315C75.207 16.0631 75.023 13.738 74.7408 11.5475C74.4588 9.35958 74.0807 7.31977 73.7727 5.82605C73.6188 5.07957 73.4826 4.47036 73.385 4.04832C73.3676 3.97292 73.3514 3.9035 73.3366 3.84034C70.1999 4.31356 66.1156 4.23884 61.7048 4.04454C60.4934 3.99118 59.2564 3.92873 58.0045 3.86552C54.4464 3.68588 50.7689 3.50021 47.2225 3.50021C42.587 3.50021 37.7554 6.11007 33.2875 9.60772C28.8333 13.0947 24.8213 17.3984 21.8259 20.6662C16.4384 26.5438 16.47 32.148 16.5068 38.6795C16.5098 39.2241 16.5129 39.7752 16.5129 40.3333C16.5129 42.6316 16.8147 45.3028 17.1808 47.5049C17.3636 48.6047 17.5612 49.5805 17.7429 50.3275C17.8339 50.7015 17.9197 51.0133 17.9963 51.2523C18.0773 51.5052 18.136 51.6372 18.1633 51.6813C21.7446 57.4588 25.5468 60.3473 28.4913 62.5842C29.2704 63.176 29.9894 63.7222 30.6284 64.2643L30.6287 64.2645C32.1328 65.5424 33.6233 66.7159 35.0438 67.2513C35.744 67.5153 36.3991 67.6125 37.013 67.5083C37.6207 67.4052 38.2317 67.0974 38.8381 66.4758L38.8383 66.4756C39.6767 65.6171 39.9023 64.7427 39.8076 63.9027C39.7097 63.0347 39.2631 62.1579 38.6684 61.3523C38.5316 61.167 38.3885 60.9874 38.2423 60.8148C37.6754 60.4213 37.1245 59.965 36.6122 59.4594C36.3223 59.1733 36.0421 58.8689 35.7761 58.5479L35.7693 58.5431L35.7376 58.5012C35.4416 58.1405 35.1635 57.7591 34.9095 57.3597C34.7381 57.1159 34.5501 56.8439 34.3567 56.556C33.6502 55.5043 32.8275 54.1781 32.5088 53.2436C31.8635 51.3582 30.5683 49.8375 29.4098 48.7775C28.8335 48.2501 28.2984 47.8436 27.9085 47.5696C27.7137 47.4327 27.5558 47.3293 27.4477 47.2608C27.3937 47.2266 27.3521 47.2011 27.3248 47.1845L27.2946 47.1665L27.2879 47.1625L27.2869 47.1619L27.2867 47.1618L27.2866 47.1618L27.2866 47.1618L26.7229 46.8355L27.1843 46.3752C27.4756 46.0846 27.6955 45.5227 27.8213 44.7298C27.9437 43.9584 27.9639 43.0587 27.9329 42.1895C27.902 41.3235 27.8209 40.5048 27.7472 39.9015C27.7105 39.6002 27.6757 39.3537 27.6502 39.1832C27.6374 39.0979 27.627 39.0317 27.6199 38.9871L27.6117 38.9369L27.6096 38.9246L27.6091 38.9218L27.609 38.9212L27.609 38.9212L27.5015 38.2917L28.1384 38.3384C28.7557 38.3836 29.5749 38.1345 30.4694 37.701C31.3471 37.2757 32.228 36.7077 32.945 36.1986L32.9456 36.1983C34.2751 35.2569 36.1786 35.733 36.853 37.2385C36.8531 37.2387 36.8532 37.2389 36.8532 37.239L36.3969 37.4433C36.6061 37.9091 36.7483 38.4421 36.7483 39.0186C36.7483 41.0217 36.1044 42.983 35.4278 45.0438C34.6789 47.3252 33.8899 49.7287 33.8899 52.446C33.8899 53.0752 33.9691 53.691 34.114 54.2872L56.7941 22.6433ZM56.7941 22.6433V23.1433C56.7941 28.3454 54.5965 33.6871 49.5307 41.2838C46.9958 45.0851 45.6461 47.3096 44.9646 49.1187C44.2689 50.9657 44.2747 52.368 44.366 54.4655C44.3854 54.9129 44.4085 55.3413 44.4308 55.7538C44.4615 56.3237 44.4906 56.8634 44.5063 57.3817C44.5331 58.2675 44.5173 59.0244 44.4078 59.6403C44.2982 60.2567 44.1043 60.6756 43.8212 60.9434C43.5475 61.2024 43.1242 61.382 42.4177 61.382C41.4407 61.382 40.1687 60.9122 38.9171 60.0655C38.4155 59.4861 37.8935 58.9898 37.4598 58.6108C37.1596 58.3483 36.8989 58.1397 36.7123 57.9959C36.619 57.924 36.5441 57.8682 36.4918 57.83C36.4857 57.8255 36.4799 57.8213 36.4745 57.8173M56.7941 22.6433L36.4745 57.8173M36.4745 57.8173C36.4577 57.7949 36.4366 57.7665 36.4114 57.7325C36.3415 57.6384 36.2407 57.5015 36.1179 57.3317C36.007 57.1785 35.8782 56.9987 35.738 56.7995L36.4745 57.8173Z" stroke="black"/>
<defs>
<linearGradient id="paint0_linear_1_31" x1="94.2779" y1="0.0752274" x2="4.03564" y2="58.8658" gradientUnits="userSpaceOnUse">
<stop offset="0.00132565" stop-color="#FFCB4B"/>
<stop offset="1" stop-color="#FFD748"/>
</linearGradient>
<linearGradient id="paint1_linear_1_31" x1="44.6235" y1="31.0529" x2="82.439" y2="39.2622" gradientUnits="userSpaceOnUse">
<stop stop-color="#FFBC47" stop-opacity="0"/>
<stop offset="1" stop-color="#C86F34"/>
</linearGradient>
<linearGradient id="paint2_linear_1_31" x1="37.5651" y1="51.9828" x2="71.3152" y2="58.9687" gradientUnits="userSpaceOnUse">
<stop stop-color="#FFBC47" stop-opacity="0"/>
<stop offset="1" stop-color="#C86F34"/>
</linearGradient>
<radialGradient id="paint3_radial_1_31" cx="0" cy="0" r="1" gradientUnits="userSpaceOnUse" gradientTransform="translate(47.396 39.4446) rotate(180) scale(44.7714 44.7714)">
<stop offset="0.5178" stop-color="#FFBC47" stop-opacity="0"/>
<stop offset="0.5332" stop-color="#FFBC47" stop-opacity="0"/>
<stop offset="1" stop-color="#FFA754"/>
</radialGradient>
<linearGradient id="paint4_linear_1_31" x1="40.9968" y1="107.242" x2="15.9563" y2="-76.2063" gradientUnits="userSpaceOnUse">
<stop stop-color="#FFBC47" stop-opacity="0"/>
<stop offset="1" stop-color="#C86F34"/>
</linearGradient>
<linearGradient id="paint5_linear_1_31" x1="51.1798" y1="95.9806" x2="19.7886" y2="6.52464" gradientUnits="userSpaceOnUse">
<stop stop-color="#FFBC47" stop-opacity="0"/>
<stop offset="1" stop-color="#C86F34"/>
</linearGradient>
<radialGradient id="paint6_radial_1_31" cx="0" cy="0" r="1" gradientUnits="userSpaceOnUse" gradientTransform="translate(46.4361 27.3075) rotate(94.4562) scale(12.5457 6.56139)">
<stop stop-color="#FBE07A"/>
<stop offset="0.2654" stop-color="#FCDF73" stop-opacity="0.7346"/>
<stop offset="0.6548" stop-color="#FDDB5F" stop-opacity="0.3452"/>
<stop offset="1" stop-color="#FFD748" stop-opacity="0"/>
</radialGradient>
<radialGradient id="paint7_radial_1_31" cx="0" cy="0" r="1" gradientUnits="userSpaceOnUse" gradientTransform="translate(33.1353 24.98) rotate(135.556) scale(12.6077 4.40765)">
<stop stop-color="#FBE07A"/>
<stop offset="0.2654" stop-color="#FCDF73" stop-opacity="0.7346"/>
<stop offset="0.6548" stop-color="#FDDB5F" stop-opacity="0.3452"/>
<stop offset="1" stop-color="#FFD748" stop-opacity="0"/>
</radialGradient>
<radialGradient id="paint8_radial_1_31" cx="0" cy="0" r="1" gradientUnits="userSpaceOnUse" gradientTransform="translate(67.055 14.4417) rotate(-176.999) scale(6.3419 6.61241)">
<stop stop-color="#FBE07A"/>
<stop offset="0.2654" stop-color="#FCDF73" stop-opacity="0.7346"/>
<stop offset="0.6548" stop-color="#FDDB5F" stop-opacity="0.3452"/>
<stop offset="1" stop-color="#FFD748" stop-opacity="0"/>
</radialGradient>
<linearGradient id="paint9_linear_1_31" x1="67.3447" y1="19.3136" x2="63.398" y2="30.2461" gradientUnits="userSpaceOnUse">
<stop stop-color="#FFBC47" stop-opacity="0"/>
<stop offset="1" stop-color="#C86F34"/>
</linearGradient>
</defs>
</svg>
