<?xml version="1.0" standalone="no"?>
<!DOCTYPE svg PUBLIC "-//W3C//DTD SVG 20010904//EN"
 "http://www.w3.org/TR/2001/REC-SVG-20010904/DTD/svg10.dtd">
<svg version="1.0" xmlns="http://www.w3.org/2000/svg"
 width="700.000000pt" height="700.000000pt" viewBox="0 0 700.000000 700.000000"
 preserveAspectRatio="xMidYMid meet">
<metadata>
Created by potrace 1.14, written by Peter Selinger 2001-2017
</metadata>
<g transform="translate(0.000000,700.000000) scale(0.100000,-0.100000)"
fill="#000000" stroke="none">
<path d="M4233 6282 c-168 -67 -259 -232 -218 -397 9 -35 61 -143 79 -165 29
-34 22 -35 -33 -9 -91 43 -176 62 -253 56 -104 -9 -155 -45 -185 -131 -19 -54
-21 -152 -13 -556 4 -183 0 -239 -26 -330 -22 -76 -72 -186 -136 -299 -12 -20
-26 -45 -32 -56 -6 -11 -20 -33 -31 -50 -59 -94 -114 -178 -217 -336 -345
-527 -526 -907 -593 -1244 -12 -59 -32 -246 -31 -285 1 -22 -3 -41 -9 -43 -20
-7 -239 16 -355 37 -30 6 -271 45 -320 52 -19 3 -42 7 -50 9 -8 2 -42 7 -75
10 -33 4 -85 10 -116 14 -95 12 -283 13 -349 1 -160 -29 -224 -97 -271 -285
-27 -109 -33 -182 -33 -375 1 -193 11 -330 40 -525 9 -55 18 -120 20 -145 7
-55 93 -490 99 -501 5 -7 27 -5 95 7 149 25 748 25 1172 -2 40 -2 120 -6 178
-9 58 -2 182 -8 275 -12 94 -4 294 -8 445 -8 296 0 347 6 524 62 236 74 569
264 826 470 285 228 567 498 932 893 166 179 243 285 325 440 65 123 130 302
149 410 4 25 8 47 9 50 1 3 5 30 9 60 5 30 10 64 12 75 19 91 27 803 11 985
-9 109 -26 261 -32 280 -2 8 -6 33 -9 55 -2 22 -7 51 -10 65 -3 14 -8 43 -11
65 -11 79 -58 261 -76 295 -22 40 -42 73 -49 80 -3 3 -23 32 -45 65 -144 215
-356 445 -585 636 -30 25 -125 99 -210 165 -85 66 -208 163 -273 215 -123 100
-213 158 -306 197 -74 31 -189 38 -248 14z m317 -1107 c0 -3 11 -22 24 -43 14
-20 37 -66 52 -102 94 -228 198 -362 394 -508 41 -30 77 -57 80 -59 2 -2 0 -7
-6 -11 -26 -18 -47 -85 -63 -199 -8 -56 -6 -253 4 -316 3 -22 8 -63 11 -92 l6
-52 -67 -13 c-80 -15 -194 -69 -323 -152 -78 -51 -104 -63 -141 -64 -130 -6
-213 102 -206 266 6 132 24 209 109 481 30 96 63 206 74 244 18 62 24 89 39
170 28 152 26 349 -6 445 -26 80 -26 83 -1 42 11 -18 20 -35 20 -37z"/>
</g>
</svg>
